<svg width="26" height="29" viewBox="0 0 26 29" fill="none" xmlns="http://www.w3.org/2000/svg">
    <g filter="url(#filter0_d_18_75)">
        <path fill-rule="evenodd" clip-rule="evenodd" d="M18.204 10.796L20 9C20.5453 8.45475 20.8179 8.18213 20.9636 7.88803C21.2409 7.32848 21.2409 6.67153 20.9636 6.11197C20.8179 5.81788 20.5453 5.54525 20 5C19.4548 4.45475 19.1821 4.18213 18.888 4.03639C18.3285 3.75911 17.6715 3.75911 17.112 4.03639C16.8179 4.18213 16.5452 4.45475 16 5L14.1813 6.81866C15.1452 8.46926 16.5314 9.84482 18.204 10.796ZM12.7269 8.27312L5.85638 15.1436C5.43132 15.5687 5.21879 15.7812 5.07906 16.0423C4.93932 16.3034 4.88038 16.5981 4.76248 17.1876L4.14709 20.2646C4.08057 20.5972 4.04731 20.7635 4.14191 20.8581C4.23652 20.9527 4.40283 20.9194 4.73544 20.8529L7.81242 20.2375C8.40187 20.1196 8.6966 20.0607 8.95769 19.9209C9.21879 19.7812 9.43132 19.5687 9.85638 19.1436L16.7458 12.2542C15.1241 11.2386 13.7524 9.87628 12.7269 8.27312Z" fill="white"/>
    </g>
    <defs>
        <filter id="filter0_d_18_75" x="-3" y="0" width="32" height="32" filterUnits="userSpaceOnUse" color-interpolation-filters="sRGB">
            <feFlood flood-opacity="0" result="BackgroundImageFix"/>
            <feColorMatrix in="SourceAlpha" type="matrix" values="0 0 0 0 0 0 0 0 0 0 0 0 0 0 0 0 0 0 127 0" result="hardAlpha"/>
            <feOffset dy="4"/>
            <feGaussianBlur stdDeviation="2"/>
            <feComposite in2="hardAlpha" operator="out"/>
            <feColorMatrix type="matrix" values="0 0 0 0 0 0 0 0 0 0 0 0 0 0 0 0 0 0 0.25 0"/>
            <feBlend mode="normal" in2="BackgroundImageFix" result="effect1_dropShadow_18_75"/>
            <feBlend mode="normal" in="SourceGraphic" in2="effect1_dropShadow_18_75" result="shape"/>
        </filter>
    </defs>
</svg>