<svg width="48" height="48" viewBox="0 0 48 48" fill="none" xmlns="http://www.w3.org/2000/svg">
<g filter="url(#filter0_d_18_133)">
<path fill-rule="evenodd" clip-rule="evenodd" d="M10.5489 20.2523C10 21.4458 10 22.8036 10 25.5191V33.9999C10 37.7711 10 39.6567 11.1716 40.8283C12.3431 41.9999 14.2288 41.9999 18 41.9999L18 32C18 30.3431 19.3431 29 21 29H27C28.6569 29 30 30.3431 30 32V41.9999C33.7712 41.9999 35.6569 41.9999 36.8284 40.8283C38 39.6567 38 37.7711 38 33.9999V25.5191C38 22.8036 38 21.4458 37.4511 20.2523C36.9022 19.0589 35.8713 18.1753 33.8095 16.408L31.8095 14.6937C28.0829 11.4995 26.2195 9.90234 24 9.90234C21.7805 9.90234 19.9171 11.4995 16.1905 14.6937L14.1905 16.408C12.1287 18.1753 11.0978 19.0589 10.5489 20.2523ZM28 41.9999V32C28 31.4477 27.5523 31 27 31H21C20.4477 31 20 31.4477 20 32V41.9999H28Z" fill="#CE9E57"/>
</g>
<defs>
<filter id="filter0_d_18_133" x="-3" y="-3" width="56" height="56" filterUnits="userSpaceOnUse" color-interpolation-filters="sRGB">
<feFlood flood-opacity="0" result="BackgroundImageFix"/>
<feColorMatrix in="SourceAlpha" type="matrix" values="0 0 0 0 0 0 0 0 0 0 0 0 0 0 0 0 0 0 127 0" result="hardAlpha"/>
<feOffset dx="1" dy="1"/>
<feGaussianBlur stdDeviation="2"/>
<feComposite in2="hardAlpha" operator="out"/>
<feColorMatrix type="matrix" values="0 0 0 0 0 0 0 0 0 0 0 0 0 0 0 0 0 0 0.25 0"/>
<feBlend mode="normal" in2="BackgroundImageFix" result="effect1_dropShadow_18_133"/>
<feBlend mode="normal" in="SourceGraphic" in2="effect1_dropShadow_18_133" result="shape"/>
</filter>
</defs>
</svg>
